<svg width="24" height="25" viewBox="0 0 24 25" fill="none" xmlns="http://www.w3.org/2000/svg">
<g opacity="0.66">
<path d="M0.00732422 19.7724C0.00732422 18.3918 0.00732436 17.7015 0.43622 17.2726C0.865116 16.8438 1.55539 16.8438 2.93594 16.8438H20.5076C21.8882 16.8438 22.5785 16.8438 23.0073 17.2726C23.4362 17.7015 23.4362 18.3918 23.4362 19.7724V21.2367C23.4362 22.6172 23.4362 23.3075 23.0073 23.7364C22.5785 24.1653 21.8882 24.1653 20.5076 24.1653H2.93594C1.55539 24.1653 0.865116 24.1653 0.43622 23.7364C0.00732436 23.3075 0.00732422 22.6172 0.00732422 21.2367V19.7724Z" fill="black" fill-opacity="0.59"/>
<path d="M0.00732422 19.7724C0.00732422 18.3918 0.00732436 17.7015 0.43622 17.2726C0.865116 16.8438 1.55539 16.8438 2.93594 16.8438H20.5076C21.8882 16.8438 22.5785 16.8438 23.0073 17.2726C23.4362 17.7015 23.4362 18.3918 23.4362 19.7724V21.2367C23.4362 22.6172 23.4362 23.3075 23.0073 23.7364C22.5785 24.1653 21.8882 24.1653 20.5076 24.1653H2.93594C1.55539 24.1653 0.865116 24.1653 0.43622 23.7364C0.00732436 23.3075 0.00732422 22.6172 0.00732422 21.2367V19.7724Z" fill="#6D6BD1"/>
</g>
<g opacity="0.66">
<path d="M8.79297 12.4501C8.79297 11.0696 8.79297 10.3793 9.22186 9.95038C9.65076 9.52148 10.341 9.52148 11.7216 9.52148H20.5074C21.888 9.52148 22.5783 9.52148 23.0071 9.95038C23.436 10.3793 23.436 11.0696 23.436 12.4501V21.2359C23.436 22.6165 23.436 23.3068 23.0071 23.7357C22.5783 24.1646 21.888 24.1646 20.5074 24.1646H11.7216C10.341 24.1646 9.65076 24.1646 9.22186 23.7357C8.79297 23.3068 8.79297 22.6165 8.79297 21.2359V12.4501Z" fill="black" fill-opacity="0.58"/>
<path d="M8.79297 12.4501C8.79297 11.0696 8.79297 10.3793 9.22186 9.95038C9.65076 9.52148 10.341 9.52148 11.7216 9.52148H20.5074C21.888 9.52148 22.5783 9.52148 23.0071 9.95038C23.436 10.3793 23.436 11.0696 23.436 12.4501V21.2359C23.436 22.6165 23.436 23.3068 23.0071 23.7357C22.5783 24.1646 21.888 24.1646 20.5074 24.1646H11.7216C10.341 24.1646 9.65076 24.1646 9.22186 23.7357C8.79297 23.3068 8.79297 22.6165 8.79297 21.2359V12.4501Z" fill="#6D6BD1"/>
</g>
<g opacity="0.66">
<path d="M16.1147 3.66494C16.1147 2.28439 16.1147 1.59412 16.5436 1.16522C16.9725 0.736328 17.6628 0.736328 19.0434 0.736328H20.5077C21.8882 0.736328 22.5785 0.736328 23.0074 1.16522C23.4363 1.59412 23.4363 2.28439 23.4363 3.66494V21.2366C23.4363 22.6172 23.4363 23.3075 23.0074 23.7364C22.5785 24.1652 21.8882 24.1652 20.5077 24.1652H19.0434C17.6628 24.1652 16.9725 24.1652 16.5436 23.7364C16.1147 23.3075 16.1147 22.6172 16.1147 21.2366V3.66494Z" fill="black" fill-opacity="0.62"/>
<path d="M16.1147 3.66494C16.1147 2.28439 16.1147 1.59412 16.5436 1.16522C16.9725 0.736328 17.6628 0.736328 19.0434 0.736328H20.5077C21.8882 0.736328 22.5785 0.736328 23.0074 1.16522C23.4363 1.59412 23.4363 2.28439 23.4363 3.66494V21.2366C23.4363 22.6172 23.4363 23.3075 23.0074 23.7364C22.5785 24.1652 21.8882 24.1652 20.5077 24.1652H19.0434C17.6628 24.1652 16.9725 24.1652 16.5436 23.7364C16.1147 23.3075 16.1147 22.6172 16.1147 21.2366V3.66494Z" fill="#6D6BD1"/>
</g>
</svg>
