<svg width="120" height="60" viewBox="0 0 120 60" fill="none" xmlns="http://www.w3.org/2000/svg">
<path d="M50.7202 20.9534C50.6868 20.5859 50.5382 20.3003 50.2745 20.0965C50.0141 19.8894 49.6418 19.7858 49.1577 19.7858C48.8372 19.7858 48.5701 19.8276 48.3564 19.9111C48.1427 19.9946 47.9825 20.1099 47.8757 20.2568C47.7688 20.4005 47.7137 20.5659 47.7103 20.7529C47.7037 20.9066 47.7338 21.0419 47.8005 21.1589C47.8706 21.2758 47.9708 21.3793 48.101 21.4695C48.2346 21.5563 48.3948 21.6332 48.5817 21.7C48.7687 21.7668 48.9791 21.8253 49.2128 21.8754L50.0942 22.0759C50.6017 22.1861 51.049 22.3331 51.4363 22.5169C51.8269 22.7006 52.1541 22.9194 52.4179 23.1732C52.685 23.4271 52.887 23.7195 53.0239 24.0502C53.1607 24.3809 53.2309 24.7518 53.2342 25.1626C53.2309 25.8107 53.0673 26.367 52.7434 26.8313C52.4196 27.2956 51.9538 27.6514 51.3461 27.8986C50.7419 28.1459 50.0124 28.2695 49.1577 28.2695C48.2997 28.2695 47.5518 28.1408 46.9141 27.8836C46.2764 27.6263 45.7806 27.2355 45.4268 26.711C45.0728 26.1866 44.8909 25.5234 44.8809 24.7217H47.2546C47.2747 25.0524 47.3632 25.328 47.5201 25.5485C47.677 25.7689 47.8924 25.936 48.1661 26.0496C48.4432 26.1631 48.7637 26.2199 49.1276 26.2199C49.4615 26.2199 49.7453 26.1748 49.979 26.0846C50.2161 25.9944 50.398 25.8692 50.5249 25.7088C50.6518 25.5485 50.7169 25.3647 50.7202 25.1576C50.7169 24.9639 50.6567 24.7985 50.5399 24.6616C50.423 24.5212 50.2427 24.401 49.9991 24.3007C49.7586 24.1971 49.4515 24.102 49.0776 24.0151L48.0058 23.7646C47.1177 23.5608 46.4183 23.2317 45.9075 22.7774C45.3967 22.3197 45.143 21.7017 45.1463 20.9233C45.143 20.2886 45.3132 19.7324 45.6571 19.2547C46.001 18.7769 46.4767 18.4045 47.0843 18.1372C47.692 17.8699 48.3848 17.7363 49.1627 17.7363C49.9573 17.7363 50.6467 17.8716 51.231 18.1422C51.8186 18.4095 52.2743 18.7853 52.5982 19.2697C52.922 19.7541 53.0873 20.3153 53.0939 20.9534H50.7202Z" fill="#FAFAFA"/>
<path d="M58.0821 28.2842C57.2775 28.2842 56.5831 28.1255 55.9988 27.8082C55.4179 27.4875 54.9705 27.0315 54.6566 26.4401C54.3461 25.8455 54.1909 25.1389 54.1909 24.3205C54.1909 23.5254 54.3478 22.8306 54.6617 22.236C54.9755 21.6379 55.4179 21.1736 55.9888 20.8429C56.5597 20.5088 57.2324 20.3418 58.007 20.3418C58.5546 20.3418 59.0553 20.4269 59.5094 20.5973C59.9634 20.7677 60.3557 21.0199 60.6863 21.354C61.0168 21.6881 61.2739 22.1007 61.4575 22.5917C61.6412 23.0795 61.733 23.639 61.733 24.2704V24.8817H55.0473V23.4586H59.4543C59.451 23.1981 59.3892 22.9658 59.269 22.7621C59.1488 22.5583 58.9836 22.3997 58.7733 22.286C58.5663 22.1691 58.3275 22.1107 58.0571 22.1107C57.7833 22.1107 57.538 22.1725 57.321 22.2961C57.1039 22.4164 56.932 22.5817 56.8051 22.7922C56.6782 22.9993 56.6114 23.2348 56.6048 23.4987V24.9469C56.6048 25.2609 56.6665 25.5365 56.7901 25.7737C56.9136 26.0076 57.0889 26.1896 57.3159 26.3199C57.5429 26.4502 57.8134 26.5153 58.1272 26.5153C58.3442 26.5153 58.5412 26.4852 58.7181 26.4251C58.8951 26.365 59.047 26.2765 59.1739 26.1596C59.3008 26.0426 59.3959 25.899 59.4594 25.7286L61.7079 25.7937C61.6144 26.2982 61.4091 26.7375 61.0919 27.1117C60.7781 27.4824 60.3658 27.7714 59.8549 27.9785C59.3441 28.1823 58.7532 28.2842 58.0821 28.2842Z" fill="#FAFAFA"/>
<path d="M65.4328 17.877V28.1395H62.9839V17.877H65.4328Z" fill="#FAFAFA"/>
<path d="M70.587 28.2842C69.7824 28.2842 69.088 28.1255 68.5037 27.8082C67.9227 27.4875 67.4754 27.0315 67.1615 26.4401C66.851 25.8455 66.6958 25.1389 66.6958 24.3205C66.6958 23.5254 66.8527 22.8306 67.1666 22.236C67.4804 21.6379 67.9227 21.1736 68.4937 20.8429C69.0645 20.5088 69.7373 20.3418 70.5119 20.3418C71.0594 20.3418 71.5602 20.4269 72.0143 20.5973C72.4683 20.7677 72.8606 21.0199 73.1912 21.354C73.5214 21.6881 73.7791 22.1007 73.9621 22.5917C74.1459 23.0795 74.2382 23.639 74.2382 24.2704V24.8817H67.5521V23.4586H71.9592C71.9558 23.1981 71.8941 22.9658 71.7739 22.7621C71.6537 22.5583 71.4884 22.3997 71.2781 22.286C71.0711 22.1691 70.8324 22.1107 70.5619 22.1107C70.2882 22.1107 70.0428 22.1725 69.8258 22.2961C69.6087 22.4164 69.4368 22.5817 69.31 22.7922C69.1831 22.9993 69.1163 23.2348 69.1096 23.4987V24.9469C69.1096 25.2609 69.1714 25.5365 69.2949 25.7737C69.4185 26.0076 69.5937 26.1896 69.8208 26.3199C70.0478 26.4502 70.3182 26.5153 70.6321 26.5153C70.8491 26.5153 71.046 26.4852 71.223 26.4251C71.4 26.365 71.5519 26.2765 71.6788 26.1596C71.8056 26.0426 71.9008 25.899 71.9642 25.7286L74.2125 25.7937C74.1195 26.2982 73.9138 26.7375 73.5968 27.1117C73.2827 27.4824 72.8706 27.7714 72.3598 27.9785C71.849 28.1823 71.2581 28.2842 70.587 28.2842Z" fill="#FAFAFA"/>
<path d="M79.0791 28.2842C78.2679 28.2842 77.5716 28.1172 76.991 27.7831C76.4134 27.449 75.9697 26.9847 75.6585 26.39C75.3481 25.7921 75.1929 25.1006 75.1929 24.3155C75.1929 23.5271 75.3481 22.8356 75.6585 22.2409C75.9726 21.643 76.4185 21.177 76.9962 20.8429C77.5768 20.5088 78.2694 20.3418 79.074 20.3418C79.7857 20.3418 80.4051 20.4704 80.9322 20.7276C81.463 20.9848 81.8774 21.349 82.174 21.82C82.4749 22.2877 82.633 22.8373 82.6499 23.4686H80.3611C80.3143 23.0744 80.181 22.7654 79.9607 22.5416C79.7439 22.3178 79.4599 22.2059 79.1092 22.2059C78.8258 22.2059 78.5769 22.286 78.3631 22.4464C78.1493 22.6034 77.9824 22.8373 77.8623 23.1479C77.7452 23.4553 77.6873 23.8361 77.6873 24.2904C77.6873 24.7448 77.7452 25.129 77.8623 25.443C77.9824 25.7537 78.1493 25.9892 78.3631 26.1495C78.5769 26.3065 78.8258 26.3851 79.1092 26.3851C79.3361 26.3851 79.5367 26.3366 79.7103 26.2397C79.8874 26.1429 80.0324 26.0008 80.1459 25.8138C80.2594 25.6233 80.3311 25.3929 80.3611 25.1222H82.6499C82.6264 25.757 82.4683 26.3116 82.174 26.7859C81.884 27.2603 81.4747 27.6294 80.9476 27.8934C80.4234 28.154 79.8003 28.2842 79.0791 28.2842Z" fill="#FAFAFA"/>
<path d="M88.2448 20.4417V22.2457H83.3921V20.4417H88.2448ZM84.4091 18.5977H86.8581V25.7183C86.8581 25.8686 86.8808 25.9906 86.9277 26.0841C86.9782 26.1743 87.0499 26.2394 87.1429 26.2795C87.2366 26.3162 87.3486 26.3346 87.479 26.3346C87.572 26.3346 87.6708 26.3263 87.774 26.3096C87.8809 26.2895 87.9615 26.2728 88.0149 26.2595L88.3854 28.0284C88.2682 28.0618 88.1028 28.1035 87.8897 28.1537C87.6789 28.2037 87.427 28.2354 87.1334 28.2488C86.5587 28.2756 86.0667 28.2087 85.6559 28.0484C85.2488 27.8847 84.9362 27.6308 84.7195 27.2867C84.5057 26.9426 84.4025 26.51 84.4091 25.9889V18.5977Z" fill="#FAFAFA"/>
<path d="M45.1768 41.0203V30.7578H49.4135C50.1814 30.7578 50.8441 30.9082 51.4017 31.2088C51.9626 31.5061 52.3949 31.9221 52.6988 32.4566C53.0025 32.9877 53.1544 33.6057 53.1544 34.3107C53.1544 35.0189 52.9992 35.6386 52.6887 36.1697C52.3816 36.6976 51.9425 37.1068 51.3716 37.3974C50.8007 37.688 50.123 37.8333 49.3384 37.8333H46.7242V35.8791H48.8776C49.2516 35.8791 49.5637 35.8139 49.8141 35.6837C50.0678 35.5533 50.2598 35.3713 50.3901 35.1374C50.5202 34.9003 50.5854 34.6247 50.5854 34.3107C50.5854 33.9933 50.5202 33.7193 50.3901 33.4888C50.2598 33.255 50.0678 33.0746 49.8141 32.9476C49.5604 32.8207 49.2482 32.7573 48.8776 32.7573H47.6557V41.0203H45.1768Z" fill="#FAFAFA"/>
<path d="M56.8249 30.7578V41.0203H54.376V30.7578H56.8249Z" fill="#FAFAFA"/>
<path d="M60.5524 41.1501C60.0617 41.1501 59.626 41.0682 59.2454 40.9045C58.8681 40.7375 58.5693 40.4869 58.349 40.1529C58.1319 39.8154 58.0234 39.3928 58.0234 38.8851C58.0234 38.4575 58.0986 38.0967 58.2488 37.8026C58.399 37.5087 58.606 37.2699 58.8698 37.0861C59.1335 36.9024 59.4374 36.7637 59.7812 36.6702C60.1251 36.5733 60.4923 36.5082 60.883 36.4747C61.3203 36.4347 61.6726 36.393 61.9397 36.3495C62.2067 36.3028 62.4004 36.2376 62.5206 36.1541C62.6441 36.0672 62.7059 35.9452 62.7059 35.7883V35.7632C62.7059 35.506 62.6174 35.3072 62.4405 35.1669C62.2635 35.0266 62.0248 34.9565 61.7243 34.9565C61.4005 34.9565 61.1401 35.0266 60.943 35.1669C60.7461 35.3072 60.6209 35.501 60.5675 35.7481L58.3089 35.668C58.3757 35.2003 58.5476 34.7827 58.8247 34.4153C59.1051 34.0444 59.4891 33.7538 59.9765 33.5433C60.4673 33.3296 61.0566 33.2227 61.7444 33.2227C62.2352 33.2227 62.6876 33.2811 63.1015 33.398C63.5155 33.5116 63.8761 33.6786 64.1833 33.8991C64.4904 34.1163 64.7275 34.3835 64.8944 34.7009C65.0646 35.0183 65.1498 35.3807 65.1498 35.7883V41.0197H62.8461V39.9474H62.786C62.6491 40.208 62.4738 40.4284 62.2602 40.6088C62.0498 40.7892 61.8011 40.9245 61.514 41.0147C61.2302 41.105 60.9097 41.1501 60.5524 41.1501ZM61.3087 39.5465C61.5724 39.5465 61.8095 39.493 62.0198 39.3861C62.2335 39.2793 62.4038 39.1322 62.5306 38.9452C62.6575 38.7547 62.7209 38.5343 62.7209 38.2837V37.5521C62.6508 37.5889 62.5656 37.6223 62.4655 37.6523C62.3687 37.6824 62.2619 37.7108 62.145 37.7376C62.0282 37.7643 61.908 37.7876 61.7844 37.8077C61.6609 37.8278 61.5424 37.8461 61.4288 37.8628C61.1985 37.8996 61.0015 37.9563 60.8379 38.0332C60.6776 38.11 60.5541 38.2102 60.4673 38.3338C60.3838 38.4541 60.3421 38.5978 60.3421 38.7648C60.3421 39.0187 60.4323 39.2124 60.6126 39.3461C60.7962 39.4797 61.0282 39.5465 61.3087 39.5465Z" fill="#FAFAFA"/>
<path d="M70.9889 33.3226V35.1265H66.1362V33.3226H70.9889ZM67.1528 31.4785H69.6017V38.5992C69.6017 38.7495 69.6252 38.8714 69.6719 38.9649C69.722 39.0551 69.7937 39.1203 69.8872 39.1603C69.9807 39.1971 70.0926 39.2155 70.2227 39.2155C70.3162 39.2155 70.4147 39.2071 70.5182 39.1904C70.6251 39.1704 70.7052 39.1537 70.7586 39.1403L71.1292 40.9092C71.0124 40.9426 70.8471 40.9844 70.6334 41.0344C70.4231 41.0846 70.171 41.1163 69.8772 41.1297C69.3029 41.1564 68.8105 41.0896 68.3998 40.9292C67.9925 40.7655 67.6803 40.5117 67.4633 40.1676C67.2497 39.8235 67.1462 39.3909 67.1528 38.8698V31.4785Z" fill="#FAFAFA"/>
<path d="M76.6105 33.3241V35.128H71.6626V33.3241H76.6105ZM72.6943 41.0209V32.9332C72.6943 32.3385 72.8061 31.8458 73.0298 31.4549C73.2536 31.0607 73.564 30.7667 73.9616 30.573C74.3584 30.3759 74.8174 30.2773 75.3387 30.2773C75.6792 30.2773 75.9999 30.3041 76.3001 30.3575C76.6039 30.4076 76.8294 30.4527 76.9758 30.4928L76.5856 32.2867C76.4955 32.2566 76.385 32.2316 76.2547 32.2115C76.128 32.1916 76.0079 32.1815 75.8944 32.1815C75.6074 32.1815 75.4105 32.245 75.3036 32.372C75.1967 32.4988 75.1433 32.6726 75.1433 32.8931V41.0209H72.6943Z" fill="#FAFAFA"/>
<path d="M81.1314 41.1651C80.3231 41.1651 79.629 40.9997 79.0477 40.669C78.4707 40.3349 78.0249 39.8705 77.7108 39.2759C77.4003 38.6779 77.2451 37.9847 77.2451 37.1963C77.2451 36.4046 77.4003 35.7114 77.7108 35.1168C78.0249 34.5188 78.4707 34.0545 79.0477 33.7237C79.629 33.3897 80.3231 33.2227 81.1314 33.2227C81.939 33.2227 82.6323 33.3897 83.21 33.7237C83.7906 34.0545 84.2365 34.5188 84.5469 35.1168C84.8602 35.7114 85.0177 36.4046 85.0177 37.1963C85.0177 37.9847 84.8602 38.6779 84.5469 39.2759C84.2365 39.8705 83.7906 40.3349 83.21 40.669C82.6323 40.9997 81.939 41.1651 81.1314 41.1651ZM81.146 39.316C81.4404 39.316 81.6886 39.2258 81.8928 39.0454C82.0964 38.865 82.2516 38.6145 82.3585 38.2938C82.4683 37.9731 82.5232 37.6023 82.5232 37.1813C82.5232 36.7537 82.4683 36.3796 82.3585 36.0589C82.2516 35.7381 82.0964 35.4876 81.8928 35.3072C81.6886 35.1268 81.4404 35.0366 81.146 35.0366C80.8422 35.0366 80.5852 35.1268 80.3751 35.3072C80.1679 35.4876 80.0097 35.7381 79.8992 36.0589C79.7923 36.3796 79.7388 36.7537 79.7388 37.1813C79.7388 37.6023 79.7923 37.9731 79.8992 38.2938C80.0097 38.6145 80.1679 38.865 80.3751 39.0454C80.5852 39.2258 80.8422 39.316 81.146 39.316Z" fill="#FAFAFA"/>
<path d="M86.272 41.0209V33.324H88.6507V34.7271H88.7313C88.8711 34.2193 89.1003 33.8418 89.4173 33.5946C89.7343 33.344 90.1033 33.2188 90.5236 33.2188C90.6378 33.2188 90.7542 33.2271 90.8743 33.2438C90.9944 33.2572 91.1064 33.2789 91.2104 33.309V35.4386C91.0932 35.3985 90.9395 35.3668 90.7491 35.3435C90.5624 35.32 90.3955 35.3083 90.2483 35.3083C89.9584 35.3083 89.6963 35.3735 89.462 35.5038C89.2321 35.6308 89.0498 35.8095 88.9165 36.04C88.7862 36.2671 88.721 36.5344 88.721 36.8417V41.0209H86.272Z" fill="#FAFAFA"/>
<path d="M92.2075 41.0197V33.3229H94.5365V34.7359H94.6214C94.7818 34.2682 95.0527 33.8991 95.4327 33.6285C95.8134 33.358 96.2673 33.2227 96.7952 33.2227C97.3297 33.2227 97.7865 33.3596 98.1673 33.6335C98.548 33.9074 98.7903 34.2749 98.8935 34.7359H98.9734C99.1169 34.2783 99.398 33.9125 99.8153 33.6385C100.233 33.3613 100.725 33.2227 101.292 33.2227C102.02 33.2227 102.611 33.4565 103.065 33.9242C103.519 34.3885 103.746 35.0266 103.746 35.8383V41.0197H101.297V36.3996C101.297 36.0155 101.199 35.7231 101.002 35.5226C100.805 35.3189 100.55 35.217 100.236 35.217C99.8988 35.217 99.633 35.3272 99.4397 35.5478C99.2494 35.7648 99.1542 36.0572 99.1542 36.4247V41.0197H96.8003V36.3746C96.8003 36.0171 96.7037 35.7348 96.5097 35.5277C96.3164 35.3206 96.0608 35.217 95.7438 35.217C95.53 35.217 95.3411 35.2688 95.1779 35.3723C95.0139 35.4726 94.8857 35.6162 94.792 35.8033C94.702 35.9903 94.6566 36.2109 94.6566 36.4648V41.0197H92.2075Z" fill="#FAFAFA"/>
<g opacity="0.66">
<path d="M12.0073 36.7724C12.0073 35.3918 12.0073 34.7015 12.4362 34.2726C12.8651 33.8438 13.5554 33.8438 14.9359 33.8438H32.5076C33.8882 33.8438 34.5785 33.8438 35.0073 34.2726C35.4362 34.7015 35.4362 35.3918 35.4362 36.7724V38.2367C35.4362 39.6172 35.4362 40.3075 35.0073 40.7364C34.5785 41.1653 33.8882 41.1653 32.5076 41.1653H14.9359C13.5554 41.1653 12.8651 41.1653 12.4362 40.7364C12.0073 40.3075 12.0073 39.6172 12.0073 38.2367V36.7724Z" fill="black" fill-opacity="0.59"/>
<path d="M12.0073 36.7724C12.0073 35.3918 12.0073 34.7015 12.4362 34.2726C12.8651 33.8438 13.5554 33.8438 14.9359 33.8438H32.5076C33.8882 33.8438 34.5785 33.8438 35.0073 34.2726C35.4362 34.7015 35.4362 35.3918 35.4362 36.7724V38.2367C35.4362 39.6172 35.4362 40.3075 35.0073 40.7364C34.5785 41.1653 33.8882 41.1653 32.5076 41.1653H14.9359C13.5554 41.1653 12.8651 41.1653 12.4362 40.7364C12.0073 40.3075 12.0073 39.6172 12.0073 38.2367V36.7724Z" fill="#6D6BD1"/>
</g>
<g opacity="0.66">
<path d="M20.793 29.4501C20.793 28.0696 20.793 27.3793 21.2219 26.9504C21.6508 26.5215 22.341 26.5215 23.7216 26.5215H32.5074C33.888 26.5215 34.5783 26.5215 35.0071 26.9504C35.436 27.3793 35.436 28.0696 35.436 29.4501V38.2359C35.436 39.6165 35.436 40.3068 35.0071 40.7357C34.5783 41.1646 33.888 41.1646 32.5074 41.1646H23.7216C22.341 41.1646 21.6508 41.1646 21.2219 40.7357C20.793 40.3068 20.793 39.6165 20.793 38.2359V29.4501Z" fill="black" fill-opacity="0.58"/>
<path d="M20.793 29.4501C20.793 28.0696 20.793 27.3793 21.2219 26.9504C21.6508 26.5215 22.341 26.5215 23.7216 26.5215H32.5074C33.888 26.5215 34.5783 26.5215 35.0071 26.9504C35.436 27.3793 35.436 28.0696 35.436 29.4501V38.2359C35.436 39.6165 35.436 40.3068 35.0071 40.7357C34.5783 41.1646 33.888 41.1646 32.5074 41.1646H23.7216C22.341 41.1646 21.6508 41.1646 21.2219 40.7357C20.793 40.3068 20.793 39.6165 20.793 38.2359V29.4501Z" fill="#6D6BD1"/>
</g>
<g opacity="0.66">
<path d="M28.1147 20.6649C28.1147 19.2844 28.1147 18.5941 28.5436 18.1652C28.9725 17.7363 29.6628 17.7363 31.0434 17.7363H32.5077C33.8882 17.7363 34.5785 17.7363 35.0074 18.1652C35.4363 18.5941 35.4363 19.2844 35.4363 20.6649V38.2366C35.4363 39.6172 35.4363 40.3075 35.0074 40.7364C34.5785 41.1652 33.8882 41.1652 32.5077 41.1652H31.0434C29.6628 41.1652 28.9725 41.1652 28.5436 40.7364C28.1147 40.3075 28.1147 39.6172 28.1147 38.2366V20.6649Z" fill="black" fill-opacity="0.62"/>
<path d="M28.1147 20.6649C28.1147 19.2844 28.1147 18.5941 28.5436 18.1652C28.9725 17.7363 29.6628 17.7363 31.0434 17.7363H32.5077C33.8882 17.7363 34.5785 17.7363 35.0074 18.1652C35.4363 18.5941 35.4363 19.2844 35.4363 20.6649V38.2366C35.4363 39.6172 35.4363 40.3075 35.0074 40.7364C34.5785 41.1652 33.8882 41.1652 32.5077 41.1652H31.0434C29.6628 41.1652 28.9725 41.1652 28.5436 40.7364C28.1147 40.3075 28.1147 39.6172 28.1147 38.2366V20.6649Z" fill="#6D6BD1"/>
</g>
</svg>
