<svg width="120" height="60" viewBox="0 0 1639 543" fill="none" xmlns="http://www.w3.org/2000/svg"><path d="M692.755 147.94C692.299 142.921 690.27 139.019 686.668 136.236C683.111 133.407 678.026 131.993 671.414 131.993C667.037 131.993 663.389 132.563 660.47 133.704C657.552 134.844 655.363 136.419 653.904 138.426C652.444 140.388 651.692 142.647 651.646 145.202C651.555 147.301 651.966 149.149 652.878 150.746C653.835 152.343 655.203 153.757 656.982 154.989C658.806 156.175 660.995 157.225 663.548 158.137C666.102 159.05 668.975 159.849 672.167 160.533L684.205 163.271C691.137 164.776 697.247 166.784 702.537 169.294C707.872 171.803 712.341 174.792 715.943 178.259C719.591 181.727 722.35 185.72 724.22 190.237C726.089 194.754 727.047 199.819 727.093 205.431C727.047 214.283 724.813 221.88 720.389 228.222C715.966 234.564 709.605 239.424 701.305 242.8C693.052 246.177 683.088 247.865 671.414 247.865C659.695 247.865 649.48 246.108 640.771 242.595C632.061 239.081 625.289 233.743 620.456 226.579C615.622 219.416 613.137 210.359 613 199.408H645.422C645.696 203.925 646.904 207.689 649.047 210.701C651.19 213.712 654.132 215.994 657.871 217.545C661.656 219.096 666.033 219.872 671.004 219.872C675.564 219.872 679.44 219.256 682.632 218.024C685.87 216.792 688.355 215.081 690.088 212.891C691.821 210.701 692.71 208.191 692.755 205.362C692.71 202.716 691.889 200.457 690.293 198.587C688.697 196.67 686.234 195.028 682.906 193.659C679.622 192.244 675.427 190.944 670.32 189.758L655.682 186.336C643.552 183.552 633.999 179.058 627.022 172.852C620.045 166.601 616.58 158.16 616.625 147.529C616.58 138.86 618.905 131.263 623.602 124.738C628.299 118.213 634.797 113.126 643.096 109.475C651.396 105.825 660.858 104 671.483 104C682.336 104 691.752 105.848 699.732 109.544C707.758 113.194 713.982 118.327 718.406 124.943C722.829 131.559 725.086 139.225 725.177 147.94H692.755Z" fill="#292929"></path><path d="M793.304 248.07C782.315 248.07 772.83 245.903 764.85 241.568C756.915 237.188 750.805 230.96 746.518 222.883C742.277 214.762 740.157 205.111 740.157 193.933C740.157 183.073 742.3 173.583 746.587 165.461C750.873 157.293 756.915 150.951 764.713 146.434C772.511 141.871 781.699 139.59 792.278 139.59C799.757 139.59 806.597 140.753 812.799 143.08C819 145.407 824.358 148.852 828.873 153.415C833.387 157.978 836.899 163.613 839.407 170.32C841.915 176.982 843.169 184.624 843.169 193.248V201.598H751.854V182.161H812.046C812.001 178.602 811.157 175.43 809.515 172.647C807.874 169.864 805.617 167.697 802.744 166.145C799.917 164.548 796.656 163.75 792.962 163.75C789.223 163.75 785.872 164.594 782.908 166.282C779.944 167.925 777.595 170.183 775.862 173.058C774.129 175.887 773.217 179.104 773.126 182.708V202.488C773.126 206.777 773.97 210.541 775.657 213.781C777.344 216.975 779.738 219.461 782.839 221.241C785.94 223.02 789.634 223.91 793.92 223.91C796.884 223.91 799.575 223.499 801.991 222.678C804.408 221.857 806.483 220.648 808.216 219.051C809.949 217.454 811.248 215.492 812.115 213.165L842.827 214.054C841.55 220.944 838.745 226.944 834.413 232.055C830.127 237.119 824.495 241.066 817.518 243.895C810.541 246.678 802.47 248.07 793.304 248.07Z" fill="#292929"></path><path d="M893.7 105.916V246.085H860.252V105.916H893.7Z" fill="#292929"></path><path d="M964.101 248.07C953.112 248.07 943.627 245.903 935.647 241.568C927.712 237.188 921.602 230.96 917.315 222.883C913.074 214.762 910.954 205.111 910.954 193.933C910.954 183.073 913.097 173.583 917.384 165.461C921.67 157.293 927.712 150.951 935.51 146.434C943.307 141.871 952.496 139.59 963.075 139.59C970.554 139.59 977.394 140.753 983.596 143.08C989.797 145.407 995.155 148.852 999.67 153.415C1004.18 157.978 1007.7 163.613 1010.2 170.32C1012.71 176.982 1013.97 184.624 1013.97 193.248V201.598H922.65V182.161H982.843C982.797 178.602 981.954 175.43 980.312 172.647C978.671 169.864 976.413 167.697 973.541 166.145C970.713 164.548 967.453 163.75 963.759 163.75C960.02 163.75 956.668 164.594 953.704 166.282C950.74 167.925 948.392 170.183 946.659 173.058C944.926 175.887 944.014 179.104 943.923 182.708V202.488C943.923 206.777 944.767 210.541 946.454 213.781C948.141 216.975 950.535 219.461 953.636 221.241C956.737 223.02 960.43 223.91 964.717 223.91C967.681 223.91 970.371 223.499 972.788 222.678C975.205 221.857 977.28 220.648 979.013 219.051C980.745 217.454 982.045 215.492 982.911 213.165L1013.62 214.054C1012.35 220.944 1009.54 226.944 1005.21 232.055C1000.92 237.119 995.292 241.066 988.315 243.895C981.338 246.678 973.267 248.07 964.101 248.07Z" fill="#292929"></path><path d="M1080.09 248.07C1069.01 248.07 1059.5 245.789 1051.57 241.226C1043.68 236.663 1037.62 230.321 1033.37 222.199C1029.13 214.032 1027.01 204.587 1027.01 193.864C1027.01 183.096 1029.13 173.651 1033.37 165.529C1037.66 157.362 1043.75 150.997 1051.64 146.434C1059.57 141.871 1069.03 139.59 1080.02 139.59C1089.74 139.59 1098.2 141.346 1105.4 144.86C1112.65 148.373 1118.31 153.347 1122.36 159.78C1126.47 166.168 1128.63 173.674 1128.86 182.297H1097.6C1096.96 176.913 1095.14 172.693 1092.13 169.636C1089.17 166.579 1085.29 165.05 1080.5 165.05C1076.63 165.05 1073.23 166.145 1070.31 168.335C1067.39 170.48 1065.11 173.674 1063.47 177.917C1061.87 182.115 1061.08 187.317 1061.08 193.522C1061.08 199.727 1061.87 204.975 1063.47 209.264C1065.11 213.507 1067.39 216.724 1070.31 218.914C1073.23 221.058 1076.63 222.131 1080.5 222.131C1083.6 222.131 1086.34 221.469 1088.71 220.146C1091.13 218.823 1093.11 216.883 1094.66 214.328C1096.21 211.727 1097.19 208.579 1097.6 204.883H1128.86C1128.54 213.553 1126.38 221.127 1122.36 227.606C1118.4 234.085 1112.81 239.127 1105.61 242.732C1098.45 246.291 1089.94 248.07 1080.09 248.07Z" fill="#292929"></path><path d="M1205.28 140.959V165.598H1139V140.959H1205.28ZM1152.89 115.772H1186.34V213.028C1186.34 215.081 1186.65 216.747 1187.29 218.024C1187.98 219.256 1188.96 220.146 1190.23 220.693C1191.51 221.195 1193.04 221.446 1194.82 221.446C1196.09 221.446 1197.44 221.332 1198.85 221.104C1200.31 220.83 1201.41 220.602 1202.14 220.42L1207.2 244.58C1205.6 245.036 1203.34 245.606 1200.43 246.291C1197.55 246.975 1194.11 247.408 1190.1 247.591C1182.25 247.956 1175.53 247.043 1169.92 244.853C1164.36 242.618 1160.09 239.15 1157.13 234.45C1154.21 229.75 1152.8 223.842 1152.89 216.724V115.772Z" fill="#292929"></path><path d="M617.036 422.015V281.846H674.903C685.391 281.846 694.443 283.9 702.058 288.006C709.719 292.067 715.624 297.748 719.774 305.048C723.923 312.303 725.998 320.744 725.998 330.372C725.998 340.045 723.878 348.509 719.637 355.763C715.442 362.973 709.445 368.562 701.647 372.532C693.85 376.501 684.593 378.486 673.877 378.486H638.171V351.794H667.584C672.691 351.794 676.955 350.904 680.375 349.125C683.84 347.345 686.462 344.858 688.241 341.664C690.019 338.425 690.909 334.661 690.909 330.372C690.909 326.037 690.019 322.295 688.241 319.147C686.462 315.953 683.84 313.489 680.375 311.755C676.909 310.022 672.645 309.155 667.584 309.155H650.894V422.015H617.036Z" fill="#292929"></path><path d="M776.136 281.846V422.015H742.688V281.846H776.136Z" fill="#292929"></path><path d="M827.043 423.795C820.34 423.795 814.389 422.677 809.191 420.441C804.038 418.16 799.956 414.738 796.947 410.175C793.983 405.566 792.501 399.794 792.501 392.859C792.501 387.019 793.527 382.091 795.579 378.075C797.631 374.06 800.458 370.798 804.061 368.288C807.663 365.779 811.813 363.885 816.509 362.608C821.206 361.284 826.222 360.395 831.558 359.938C837.531 359.391 842.342 358.821 845.99 358.227C849.638 357.589 852.283 356.699 853.925 355.558C855.612 354.372 856.456 352.706 856.456 350.562V350.22C856.456 346.706 855.247 343.991 852.83 342.075C850.413 340.159 847.153 339.201 843.049 339.201C838.626 339.201 835.069 340.159 832.378 342.075C829.688 343.991 827.978 346.638 827.248 350.014L796.4 348.919C797.312 342.531 799.66 336.828 803.445 331.809C807.275 326.744 812.519 322.775 819.177 319.9C825.88 316.98 833.929 315.52 843.323 315.52C850.026 315.52 856.205 316.318 861.859 317.915C867.514 319.466 872.439 321.748 876.634 324.759C880.829 327.725 884.067 331.375 886.347 335.71C888.672 340.045 889.835 344.995 889.835 350.562V422.015H858.371V407.369H857.55C855.68 410.928 853.286 413.939 850.368 416.403C847.495 418.867 844.098 420.715 840.176 421.947C836.3 423.179 831.922 423.795 827.043 423.795ZM837.372 401.893C840.974 401.893 844.212 401.163 847.085 399.703C850.003 398.243 852.329 396.235 854.061 393.68C855.794 391.079 856.661 388.068 856.661 384.646V374.653C855.703 375.155 854.54 375.612 853.172 376.022C851.85 376.433 850.391 376.821 848.795 377.186C847.199 377.551 845.557 377.87 843.87 378.144C842.183 378.418 840.564 378.669 839.013 378.897C835.867 379.399 833.176 380.174 830.942 381.224C828.753 382.273 827.066 383.642 825.88 385.33C824.74 386.973 824.17 388.935 824.17 391.216C824.17 394.684 825.402 397.33 827.864 399.156C830.372 400.981 833.541 401.893 837.372 401.893Z" fill="#292929"></path><path d="M969.59 316.889V341.528H903.31V316.889H969.59ZM917.195 291.702H950.643V388.958C950.643 391.011 950.963 392.676 951.601 393.954C952.285 395.186 953.265 396.076 954.542 396.623C955.819 397.125 957.347 397.376 959.125 397.376C960.402 397.376 961.747 397.262 963.161 397.034C964.62 396.76 965.714 396.532 966.444 396.349L971.506 420.509C969.91 420.966 967.652 421.536 964.734 422.22C961.861 422.905 958.418 423.338 954.405 423.521C946.562 423.886 939.836 422.973 934.227 420.783C928.664 418.547 924.4 415.08 921.436 410.38C918.518 405.68 917.104 399.772 917.195 392.654V291.702Z" fill="#292929"></path><path d="M1046.37 316.889V341.528H978.79V316.889H1046.37ZM992.881 422.015V311.55C992.881 303.428 994.409 296.698 997.464 291.36C1000.52 285.976 1004.76 281.96 1010.19 279.314C1015.61 276.622 1021.88 275.276 1029 275.276C1033.65 275.276 1038.03 275.641 1042.13 276.371C1046.28 277.055 1049.36 277.671 1051.36 278.219L1046.03 302.721C1044.8 302.31 1043.29 301.968 1041.51 301.694C1039.78 301.421 1038.14 301.284 1036.59 301.284C1032.67 301.284 1029.98 302.151 1028.52 303.885C1027.06 305.618 1026.33 307.991 1026.33 311.003V422.015H992.881Z" fill="#292929"></path><path d="M1108.12 424C1097.08 424 1087.6 421.741 1079.66 417.224C1071.78 412.661 1065.69 406.319 1061.4 398.197C1057.16 390.03 1055.04 380.562 1055.04 369.794C1055.04 358.98 1057.16 349.512 1061.4 341.391C1065.69 333.223 1071.78 326.881 1079.66 322.364C1087.6 317.801 1097.08 315.52 1108.12 315.52C1119.15 315.52 1128.62 317.801 1136.51 322.364C1144.44 326.881 1150.53 333.223 1154.77 341.391C1159.05 349.512 1161.2 358.98 1161.2 369.794C1161.2 380.562 1159.05 390.03 1154.77 398.197C1150.53 406.319 1144.44 412.661 1136.51 417.224C1128.62 421.741 1119.15 424 1108.12 424ZM1108.32 398.745C1112.34 398.745 1115.73 397.513 1118.52 395.049C1121.3 392.585 1123.42 389.163 1124.88 384.783C1126.38 380.403 1127.13 375.338 1127.13 369.589C1127.13 363.748 1126.38 358.638 1124.88 354.258C1123.42 349.877 1121.3 346.455 1118.52 343.991C1115.73 341.528 1112.34 340.296 1108.32 340.296C1104.17 340.296 1100.66 341.528 1097.79 343.991C1094.96 346.455 1092.8 349.877 1091.29 354.258C1089.83 358.638 1089.1 363.748 1089.1 369.589C1089.1 375.338 1089.83 380.403 1091.29 384.783C1092.8 389.163 1094.96 392.585 1097.79 395.049C1100.66 397.513 1104.17 398.745 1108.32 398.745Z" fill="#292929"></path><path d="M1178.33 422.015V316.889H1210.82V336.052H1211.92C1213.83 329.117 1216.96 323.961 1221.29 320.584C1225.62 317.162 1230.66 315.451 1236.4 315.451C1237.96 315.451 1239.55 315.565 1241.19 315.793C1242.83 315.976 1244.36 316.273 1245.78 316.683V345.771C1244.18 345.223 1242.08 344.79 1239.48 344.471C1236.93 344.151 1234.65 343.991 1232.64 343.991C1228.68 343.991 1225.1 344.881 1221.9 346.661C1218.76 348.395 1216.27 350.836 1214.45 353.984C1212.67 357.087 1211.78 360.737 1211.78 364.935V422.015H1178.33Z" fill="#292929"></path><path d="M1259.4 422.015V316.889H1291.21V336.189H1292.37C1294.56 329.801 1298.26 324.759 1303.45 321.063C1308.65 317.368 1314.85 315.52 1322.06 315.52C1329.36 315.52 1335.6 317.39 1340.8 321.132C1346 324.873 1349.31 329.892 1350.72 336.189H1351.81C1353.77 329.938 1357.61 324.942 1363.31 321.2C1369.01 317.413 1375.73 315.52 1383.48 315.52C1393.42 315.52 1401.5 318.714 1407.7 325.102C1413.9 331.444 1417 340.159 1417 351.246V422.015H1383.55V358.912C1383.55 353.665 1382.21 349.672 1379.52 346.934C1376.83 344.151 1373.34 342.76 1369.05 342.76C1364.45 342.76 1360.82 344.265 1358.18 347.277C1355.58 350.242 1354.28 354.235 1354.28 359.254V422.015H1322.13V358.57C1322.13 353.687 1320.81 349.832 1318.16 347.003C1315.52 344.174 1312.03 342.76 1307.7 342.76C1304.78 342.76 1302.2 343.467 1299.97 344.881C1297.73 346.25 1295.98 348.212 1294.7 350.767C1293.47 353.322 1292.85 356.334 1292.85 359.802V422.015H1259.4Z" fill="#292929"></path><g opacity="0.66"><path d="M164 364C164 345.144 164 335.716 169.858 329.858C175.716 324 185.144 324 204 324H444C462.856 324 472.284 324 478.142 329.858C484 335.716 484 345.144 484 364V384C484 402.856 484 412.284 478.142 418.142C472.284 424 462.856 424 444 424H204C185.144 424 175.716 424 169.858 418.142C164 412.284 164 402.856 164 384V364Z" fill="black" fill-opacity="0.59"></path><path d="M164 364C164 345.144 164 335.716 169.858 329.858C175.716 324 185.144 324 204 324H444C462.856 324 472.284 324 478.142 329.858C484 335.716 484 345.144 484 364V384C484 402.856 484 412.284 478.142 418.142C472.284 424 462.856 424 444 424H204C185.144 424 175.716 424 169.858 418.142C164 412.284 164 402.856 164 384V364Z" fill="#6D6BD1"></path></g><g opacity="0.66"><path d="M284 264C284 245.144 284 235.716 289.858 229.858C295.716 224 305.144 224 324 224H444C462.856 224 472.284 224 478.142 229.858C484 235.716 484 245.144 484 264V384C484 402.856 484 412.284 478.142 418.142C472.284 424 462.856 424 444 424H324C305.144 424 295.716 424 289.858 418.142C284 412.284 284 402.856 284 384V264Z" fill="black" fill-opacity="0.58"></path><path d="M284 264C284 245.144 284 235.716 289.858 229.858C295.716 224 305.144 224 324 224H444C462.856 224 472.284 224 478.142 229.858C484 235.716 484 245.144 484 264V384C484 402.856 484 412.284 478.142 418.142C472.284 424 462.856 424 444 424H324C305.144 424 295.716 424 289.858 418.142C284 412.284 284 402.856 284 384V264Z" fill="#6D6BD1"></path></g><g opacity="0.66"><path d="M384 144C384 125.144 384 115.716 389.858 109.858C395.716 104 405.144 104 424 104H444C462.856 104 472.284 104 478.142 109.858C484 115.716 484 125.144 484 144V384C484 402.856 484 412.284 478.142 418.142C472.284 424 462.856 424 444 424H424C405.144 424 395.716 424 389.858 418.142C384 412.284 384 402.856 384 384V144Z" fill="black" fill-opacity="0.62"></path><path d="M384 144C384 125.144 384 115.716 389.858 109.858C395.716 104 405.144 104 424 104H444C462.856 104 472.284 104 478.142 109.858C484 115.716 484 125.144 484 144V384C484 402.856 484 412.284 478.142 418.142C472.284 424 462.856 424 444 424H424C405.144 424 395.716 424 389.858 418.142C384 412.284 384 402.856 384 384V144Z" fill="#6D6BD1"></path></g></svg>