<svg width="92" height="24" viewBox="0 0 92 24" fill="none" xmlns="http://www.w3.org/2000/svg">
<g clip-path="url(#clip0_1200_109)">
<path d="M38.7128 3.21708C38.6794 2.84962 38.5309 2.56393 38.2672 2.36017C38.0067 2.15304 37.6344 2.04952 37.1503 2.04952C36.8299 2.04952 36.5628 2.09125 36.3491 2.17479C36.1354 2.25825 35.9752 2.37357 35.8683 2.52051C35.7614 2.66416 35.7064 2.82955 35.703 3.01662C35.6964 3.1703 35.7264 3.3056 35.7932 3.42253C35.8633 3.53945 35.9634 3.64298 36.0937 3.73318C36.2272 3.82001 36.3875 3.89689 36.5744 3.96366C36.7614 4.03051 36.9718 4.08901 37.2055 4.13909L38.0868 4.33955C38.5944 4.44974 39.0417 4.59675 39.429 4.78053C39.8196 4.96422 40.1468 5.18306 40.4105 5.4369C40.6776 5.69081 40.8796 5.98316 41.0165 6.31387C41.1534 6.64459 41.2235 7.01542 41.2269 7.42631C41.2235 8.07441 41.06 8.63063 40.7361 9.09496C40.4122 9.55929 39.9465 9.91512 39.3388 10.1623C38.7346 10.4095 38.0051 10.5331 37.1503 10.5331C36.2923 10.5331 35.5444 10.4045 34.9068 10.1473C34.2691 9.89001 33.7733 9.49918 33.4194 8.97467C33.0655 8.45023 32.8836 7.78711 32.8735 6.98533H35.2473C35.2674 7.31605 35.3558 7.59163 35.5127 7.81215C35.6696 8.03261 35.885 8.19968 36.1588 8.31324C36.4359 8.4268 36.7564 8.48361 37.1203 8.48361C37.4542 8.48361 37.738 8.43851 37.9717 8.34831C38.2087 8.25811 38.3907 8.13284 38.5176 7.9725C38.6444 7.81215 38.7095 7.62838 38.7128 7.42126C38.7095 7.22753 38.6494 7.06214 38.5326 6.92522C38.4157 6.78487 38.2354 6.66465 37.9917 6.56442C37.7513 6.46082 37.4442 6.36564 37.0702 6.2788L35.9985 6.02826C35.1104 5.82443 34.411 5.4954 33.9002 5.04103C33.3893 4.58336 33.1356 3.96535 33.1389 3.18699C33.1356 2.55229 33.3059 1.99607 33.6498 1.51834C33.9937 1.04061 34.4694 0.668163 35.077 0.400854C35.6847 0.133618 36.3775 0 37.1554 0C37.95 0 38.6394 0.135302 39.2237 0.405906C39.8113 0.673142 40.267 1.04896 40.5909 1.53335C40.9147 2.01774 41.08 2.57901 41.0866 3.21708H38.7128Z" fill="#292929"/>
<path d="M46.0748 10.5479C45.2702 10.5479 44.5758 10.3892 43.9915 10.0718C43.4105 9.75114 42.9632 9.29516 42.6493 8.7038C42.3388 8.10921 42.1836 7.40261 42.1836 6.58421C42.1836 5.78909 42.3405 5.09428 42.6544 4.49962C42.9682 3.9016 43.4105 3.43727 43.9815 3.10656C44.5524 2.77247 45.2251 2.60547 45.9997 2.60547C46.5472 2.60547 47.048 2.69062 47.5021 2.86099C47.9561 3.03136 48.3484 3.28359 48.679 3.61767C49.0095 3.95175 49.2666 4.36432 49.4502 4.85538C49.6338 5.34314 49.7257 5.90265 49.7257 6.53406V7.14541H43.04V5.72232H47.447C47.4437 5.46175 47.3819 5.22951 47.2617 5.02575C47.1415 4.82199 46.9763 4.66333 46.7659 4.5497C46.5589 4.43278 46.3202 4.37435 46.0497 4.37435C45.776 4.37435 45.5306 4.43615 45.3136 4.55973C45.0966 4.68003 44.9246 4.84535 44.7977 5.05584C44.6709 5.26297 44.6041 5.4985 44.5974 5.76237V7.21057C44.5974 7.52459 44.6592 7.80017 44.7827 8.03739C44.9063 8.27124 45.0815 8.45325 45.3086 8.58358C45.5356 8.71383 45.8061 8.77899 46.1199 8.77899C46.3369 8.77899 46.5339 8.7489 46.7108 8.68879C46.8878 8.62868 47.0397 8.54016 47.1666 8.42324C47.2934 8.30631 47.3885 8.16266 47.452 7.99229L49.7006 8.05738C49.6071 8.56183 49.4018 9.00112 49.0846 9.37533C48.7708 9.74609 48.3584 10.0351 47.8476 10.2422C47.3368 10.446 46.7459 10.5479 46.0748 10.5479Z" fill="#292929"/>
<path d="M53.4255 0.140625V10.4032H50.9766V0.140625H53.4255Z" fill="#292929"/>
<path d="M58.5797 10.5479C57.7751 10.5479 57.0806 10.3892 56.4964 10.0718C55.9154 9.75114 55.4681 9.29516 55.1542 8.7038C54.8437 8.10921 54.6885 7.40261 54.6885 6.58421C54.6885 5.78909 54.8454 5.09428 55.1593 4.49962C55.4731 3.9016 55.9154 3.43727 56.4864 3.10656C57.0572 2.77247 57.73 2.60547 58.5045 2.60547C59.0521 2.60547 59.5529 2.69062 60.007 2.86099C60.461 3.03136 60.8533 3.28359 61.1839 3.61767C61.5141 3.95175 61.7718 4.36432 61.9548 4.85538C62.1386 5.34314 62.2308 5.90265 62.2308 6.53406V7.14541H55.5448V5.72232H59.9519C59.9485 5.46175 59.8868 5.22951 59.7666 5.02575C59.6464 4.82199 59.4811 4.66333 59.2708 4.5497C59.0638 4.43278 58.8251 4.37435 58.5546 4.37435C58.2809 4.37435 58.0354 4.43615 57.8184 4.55973C57.6014 4.68003 57.4295 4.84535 57.3026 5.05584C57.1758 5.26297 57.109 5.4985 57.1023 5.76237V7.21057C57.1023 7.52459 57.1641 7.80017 57.2876 8.03739C57.4111 8.27124 57.5864 8.45325 57.8135 8.58358C58.0405 8.71383 58.3109 8.77899 58.6248 8.77899C58.8418 8.77899 59.0387 8.7489 59.2157 8.68879C59.3926 8.62868 59.5446 8.54016 59.6714 8.42324C59.7983 8.30631 59.8934 8.16266 59.9568 7.99229L62.2052 8.05738C62.1122 8.56183 61.9065 9.00112 61.5895 9.37533C61.2754 9.74609 60.8633 10.0351 60.3525 10.2422C59.8417 10.446 59.2507 10.5479 58.5797 10.5479Z" fill="#292929"/>
<path d="M67.0718 10.5479C66.2606 10.5479 65.5643 10.3809 64.9837 10.0468C64.406 9.7127 63.9624 9.24837 63.6512 8.65372C63.3408 8.05577 63.1855 7.36425 63.1855 6.57916C63.1855 5.79078 63.3408 5.09926 63.6512 4.5046C63.9653 3.90665 64.4112 3.44064 64.9888 3.10656C65.5694 2.77247 66.2621 2.60547 67.0667 2.60547C67.7783 2.60547 68.3978 2.73404 68.9249 2.99131C69.4557 3.24852 69.8701 3.61269 70.1666 4.08369C70.4675 4.55139 70.6257 5.10094 70.6425 5.73228H68.3538C68.307 5.33809 68.1737 5.02912 67.9533 4.8053C67.7366 4.58148 67.4525 4.46953 67.1018 4.46953C66.8185 4.46953 66.5696 4.5497 66.3558 4.71005C66.142 4.86709 65.975 5.10094 65.855 5.4116C65.7378 5.71895 65.68 6.09982 65.68 6.55412C65.68 7.00842 65.7378 7.39266 65.855 7.70668C65.975 8.01733 66.142 8.25286 66.3558 8.41321C66.5696 8.57018 66.8185 8.64874 67.1018 8.64874C67.3288 8.64874 67.5294 8.60027 67.7029 8.50341C67.8801 8.40654 68.0251 8.26451 68.1386 8.07744C68.2521 7.88701 68.3238 7.65652 68.3538 7.38592H70.6425C70.6191 8.0207 70.461 8.57523 70.1666 9.04959C69.8767 9.52396 69.4674 9.89311 68.9403 10.157C68.4161 10.4176 67.793 10.5479 67.0718 10.5479Z" fill="#292929"/>
<path d="M76.2375 2.7054V4.50936H71.3848V2.7054H76.2375ZM72.4017 0.861328H74.8508V7.98196C74.8508 8.13227 74.8735 8.25425 74.9203 8.34775C74.9709 8.43795 75.0426 8.50311 75.1356 8.54316C75.2293 8.57991 75.3413 8.59829 75.4716 8.59829C75.5646 8.59829 75.6635 8.58994 75.7667 8.57325C75.8736 8.55319 75.9541 8.5365 76.0076 8.52317L76.3781 10.2921C76.2609 10.3254 76.0954 10.3672 75.8824 10.4173C75.6715 10.4674 75.4197 10.4991 75.1261 10.5125C74.5513 10.5392 74.0593 10.4724 73.6486 10.312C73.2415 10.1484 72.9289 9.89449 72.7122 9.55038C72.4984 9.20627 72.3951 8.77371 72.4017 8.25257V0.861328Z" fill="#292929"/>
<path d="M33.1694 23.284V13.0215H37.4062C38.1741 13.0215 38.8368 13.1719 39.3943 13.4725C39.9553 13.7698 40.3876 14.1858 40.6914 14.7202C40.9952 15.2514 41.1471 15.8694 41.1471 16.5743C41.1471 17.2825 40.9919 17.9022 40.6814 18.4333C40.3743 18.9612 39.9352 19.3704 39.3643 19.6611C38.7934 19.9517 38.1156 20.097 37.3311 20.097H34.7168V18.1428H36.8703C37.2442 18.1428 37.5564 18.0776 37.8068 17.9473C38.0605 17.817 38.2525 17.6349 38.3827 17.4011C38.5129 17.1639 38.5781 16.8884 38.5781 16.5743C38.5781 16.2569 38.5129 15.983 38.3827 15.7525C38.2525 15.5186 38.0605 15.3382 37.8068 15.2113C37.5531 15.0844 37.2409 15.0209 36.8703 15.0209H35.6484V23.284H33.1694Z" fill="#292929"/>
<path d="M44.8176 13.0215V23.284H42.3687V13.0215H44.8176Z" fill="#292929"/>
<path d="M48.5451 23.4137C48.0544 23.4137 47.6187 23.3319 47.2381 23.1682C46.8608 23.0012 46.5619 22.7506 46.3416 22.4165C46.1246 22.0791 46.0161 21.6565 46.0161 21.1487C46.0161 20.7212 46.0912 20.3604 46.2415 20.0663C46.3917 19.7724 46.5987 19.5335 46.8625 19.3498C47.1262 19.1661 47.43 19.0274 47.7739 18.9339C48.1178 18.837 48.485 18.7719 48.8757 18.7384C49.313 18.6984 49.6652 18.6566 49.9323 18.6131C50.1994 18.5664 50.3931 18.5013 50.5133 18.4177C50.6368 18.3309 50.6986 18.2089 50.6986 18.0519V18.0269C50.6986 17.7696 50.6101 17.5708 50.4331 17.4306C50.2562 17.2903 50.0175 17.2201 49.717 17.2201C49.3932 17.2201 49.1327 17.2903 48.9357 17.4306C48.7388 17.5708 48.6136 17.7646 48.5601 18.0118L46.3016 17.9316C46.3684 17.4639 46.5403 17.0464 46.8174 16.6789C47.0978 16.3081 47.4817 16.0175 47.9692 15.807C48.46 15.5932 49.0493 15.4863 49.7371 15.4863C50.2278 15.4863 50.6802 15.5448 51.0942 15.6617C51.5082 15.7752 51.8688 15.9423 52.1759 16.1628C52.4831 16.3799 52.7202 16.6472 52.8871 16.9645C53.0573 17.2819 53.1425 17.6444 53.1425 18.0519V23.2834H50.8388V22.2111H50.7787C50.6418 22.4717 50.4665 22.6921 50.2529 22.8725C50.0425 23.0529 49.7938 23.1882 49.5067 23.2784C49.2229 23.3686 48.9023 23.4137 48.5451 23.4137ZM49.3014 21.8102C49.5651 21.8102 49.8022 21.7567 50.0125 21.6498C50.2261 21.5429 50.3964 21.3959 50.5233 21.2088C50.6501 21.0184 50.7136 20.798 50.7136 20.5474V19.8158C50.6435 19.8525 50.5583 19.886 50.4582 19.916C50.3614 19.9461 50.2546 19.9745 50.1377 20.0012C50.0208 20.028 49.9006 20.0513 49.7771 20.0714C49.6536 20.0914 49.5351 20.1098 49.4215 20.1265C49.1912 20.1633 48.9942 20.22 48.8306 20.2969C48.6703 20.3737 48.5468 20.4739 48.46 20.5975C48.3765 20.7178 48.3348 20.8614 48.3348 21.0284C48.3348 21.2824 48.425 21.4761 48.6052 21.6098C48.7889 21.7434 49.0209 21.8102 49.3014 21.8102Z" fill="#292929"/>
<path d="M58.9816 15.5863V17.3902H54.1289V15.5863H58.9816ZM55.1455 13.7422H57.5944V20.8628C57.5944 21.0131 57.6178 21.135 57.6646 21.2286C57.7146 21.3188 57.7864 21.384 57.8799 21.424C57.9734 21.4608 58.0852 21.4791 58.2154 21.4791C58.3089 21.4791 58.4074 21.4708 58.5109 21.4541C58.6177 21.434 58.6978 21.4174 58.7513 21.404L59.1219 23.1728C59.005 23.2063 58.8397 23.248 58.6261 23.2981C58.4157 23.3483 58.1637 23.38 57.8698 23.3934C57.2956 23.4201 56.8032 23.3532 56.3925 23.1929C55.9852 23.0292 55.673 22.7754 55.456 22.4312C55.2424 22.0871 55.1388 21.6546 55.1455 21.1334V13.7422Z" fill="#292929"/>
<path d="M64.6032 15.5877V17.3917H59.6553V15.5877H64.6032ZM60.687 23.2846V15.1968C60.687 14.6022 60.7988 14.1094 61.0225 13.7186C61.2462 13.3244 61.5567 13.0304 61.9542 12.8367C62.3511 12.6396 62.8101 12.541 63.3314 12.541C63.6719 12.541 63.9926 12.5677 64.2927 12.6212C64.5966 12.6713 64.8221 12.7164 64.9685 12.7565L64.5783 14.5504C64.4882 14.5203 64.3777 14.4953 64.2473 14.4752C64.1207 14.4552 64.0006 14.4452 63.8871 14.4452C63.6001 14.4452 63.4032 14.5087 63.2963 14.6356C63.1894 14.7625 63.1359 14.9363 63.1359 15.1568V23.2846H60.687Z" fill="#292929"/>
<path d="M69.1241 23.4287C68.3158 23.4287 67.6217 23.2633 67.0404 22.9326C66.4634 22.5985 66.0175 22.1342 65.7034 21.5396C65.393 20.9416 65.2378 20.2484 65.2378 19.46C65.2378 18.6683 65.393 17.9751 65.7034 17.3805C66.0175 16.7825 66.4634 16.3181 67.0404 15.9874C67.6217 15.6533 68.3158 15.4863 69.1241 15.4863C69.9316 15.4863 70.625 15.6533 71.2026 15.9874C71.7832 16.3181 72.2291 16.7825 72.5396 17.3805C72.8529 17.9751 73.0103 18.6683 73.0103 19.46C73.0103 20.2484 72.8529 20.9416 72.5396 21.5396C72.2291 22.1342 71.7832 22.5985 71.2026 22.9326C70.625 23.2633 69.9316 23.4287 69.1241 23.4287ZM69.1387 21.5797C69.433 21.5797 69.6812 21.4895 69.8855 21.3091C70.089 21.1287 70.2443 20.8781 70.3512 20.5574C70.461 20.2368 70.5159 19.8659 70.5159 19.445C70.5159 19.0174 70.461 18.6432 70.3512 18.3225C70.2443 18.0018 70.089 17.7512 69.8855 17.5708C69.6812 17.3905 69.433 17.3003 69.1387 17.3003C68.8349 17.3003 68.5779 17.3905 68.3678 17.5708C68.1606 17.7512 68.0024 18.0018 67.8919 18.3225C67.785 18.6432 67.7315 19.0174 67.7315 19.445C67.7315 19.8659 67.785 20.2368 67.8919 20.5574C68.0024 20.8781 68.1606 21.1287 68.3678 21.3091C68.5779 21.4895 68.8349 21.5797 69.1387 21.5797Z" fill="#292929"/>
<path d="M74.2646 23.2845V15.5877H76.6434V16.9907H76.724C76.8638 16.483 77.093 16.1055 77.41 15.8582C77.727 15.6077 78.096 15.4824 78.5163 15.4824C78.6305 15.4824 78.7469 15.4908 78.867 15.5075C78.987 15.5209 79.0991 15.5426 79.203 15.5726V17.7023C79.0859 17.6622 78.9321 17.6305 78.7418 17.6071C78.5551 17.5837 78.3881 17.572 78.241 17.572C77.951 17.572 77.6889 17.6372 77.4546 17.7675C77.2248 17.8944 77.0424 18.0731 76.9092 18.3036C76.7789 18.5308 76.7137 18.7981 76.7137 19.1054V23.2845H74.2646Z" fill="#292929"/>
<path d="M80.2002 23.2834V15.5866H82.5292V16.9996H82.6141C82.7744 16.5319 83.0453 16.1628 83.4253 15.8922C83.806 15.6216 84.26 15.4863 84.7879 15.4863C85.3223 15.4863 85.7792 15.6232 86.1599 15.8972C86.5406 16.1711 86.783 16.5386 86.8862 16.9996H86.966C87.1095 16.5419 87.3907 16.1762 87.808 15.9022C88.2253 15.6249 88.7173 15.4863 89.2848 15.4863C90.0125 15.4863 90.6041 15.7202 91.058 16.1879C91.512 16.6522 91.7389 17.2903 91.7389 18.102V23.2834H89.2899V18.6633C89.2899 18.2791 89.1918 17.9868 88.9948 17.7863C88.7979 17.5826 88.5424 17.4807 88.2283 17.4807C87.8915 17.4807 87.6257 17.5909 87.4324 17.8114C87.2421 18.0285 87.1469 18.3209 87.1469 18.6883V23.2834H84.793V18.6383C84.793 18.2807 84.6964 17.9985 84.5023 17.7914C84.309 17.5842 84.0535 17.4807 83.7365 17.4807C83.5227 17.4807 83.3338 17.5325 83.1705 17.636C83.0065 17.7362 82.8784 17.8799 82.7847 18.067C82.6946 18.254 82.6492 18.4745 82.6492 18.7285V23.2834H80.2002Z" fill="#292929"/>
<g opacity="0.66">
<path d="M0 19.036C0 17.6555 1.39647e-07 16.9652 0.428896 16.5363C0.857791 16.1074 1.54807 16.1074 2.92861 16.1074H20.5003C21.8809 16.1074 22.5711 16.1074 23 16.5363C23.4289 16.9652 23.4289 17.6555 23.4289 19.036V20.5003C23.4289 21.8809 23.4289 22.5712 23 23.0001C22.5711 23.429 21.8809 23.429 20.5003 23.429H2.92861C1.54807 23.429 0.857791 23.429 0.428896 23.0001C1.39647e-07 22.5712 0 21.8809 0 20.5003V19.036Z" fill="black" fill-opacity="0.59"/>
<path d="M0 19.036C0 17.6555 1.39647e-07 16.9652 0.428896 16.5363C0.857791 16.1074 1.54807 16.1074 2.92861 16.1074H20.5003C21.8809 16.1074 22.5711 16.1074 23 16.5363C23.4289 16.9652 23.4289 17.6555 23.4289 19.036V20.5003C23.4289 21.8809 23.4289 22.5712 23 23.0001C22.5711 23.429 21.8809 23.429 20.5003 23.429H2.92861C1.54807 23.429 0.857791 23.429 0.428896 23.0001C1.39647e-07 22.5712 0 21.8809 0 20.5003V19.036Z" fill="#6D6BD1"/>
</g>
<g opacity="0.66">
<path d="M8.78564 11.7138C8.78564 10.3332 8.78564 9.64295 9.21454 9.21405C9.64344 8.78516 10.3337 8.78516 11.7143 8.78516H20.5001C21.8807 8.78516 22.5709 8.78516 22.9998 9.21405C23.4287 9.64295 23.4287 10.3332 23.4287 11.7138V20.4996C23.4287 21.8802 23.4287 22.5704 22.9998 22.9993C22.5709 23.4282 21.8807 23.4282 20.5001 23.4282H11.7143C10.3337 23.4282 9.64344 23.4282 9.21454 22.9993C8.78564 22.5704 8.78564 21.8802 8.78564 20.4996V11.7138Z" fill="black" fill-opacity="0.58"/>
<path d="M8.78564 11.7138C8.78564 10.3332 8.78564 9.64295 9.21454 9.21405C9.64344 8.78516 10.3337 8.78516 11.7143 8.78516H20.5001C21.8807 8.78516 22.5709 8.78516 22.9998 9.21405C23.4287 9.64295 23.4287 10.3332 23.4287 11.7138V20.4996C23.4287 21.8802 23.4287 22.5704 22.9998 22.9993C22.5709 23.4282 21.8807 23.4282 20.5001 23.4282H11.7143C10.3337 23.4282 9.64344 23.4282 9.21454 22.9993C8.78564 22.5704 8.78564 21.8802 8.78564 20.4996V11.7138Z" fill="#6D6BD1"/>
</g>
<g opacity="0.66">
<path d="M16.1074 2.92861C16.1074 1.54807 16.1074 0.857791 16.5363 0.428896C16.9652 1.39647e-07 17.6555 0 19.036 0H20.5003C21.8809 0 22.5712 1.39647e-07 23.0001 0.428896C23.429 0.857791 23.429 1.54807 23.429 2.92861V20.5003C23.429 21.8809 23.429 22.5711 23.0001 23C22.5712 23.4289 21.8809 23.4289 20.5003 23.4289H19.036C17.6555 23.4289 16.9652 23.4289 16.5363 23C16.1074 22.5711 16.1074 21.8809 16.1074 20.5003V2.92861Z" fill="black" fill-opacity="0.62"/>
<path d="M16.1074 2.92861C16.1074 1.54807 16.1074 0.857791 16.5363 0.428896C16.9652 1.39647e-07 17.6555 0 19.036 0H20.5003C21.8809 0 22.5712 1.39647e-07 23.0001 0.428896C23.429 0.857791 23.429 1.54807 23.429 2.92861V20.5003C23.429 21.8809 23.429 22.5711 23.0001 23C22.5712 23.4289 21.8809 23.4289 20.5003 23.4289H19.036C17.6555 23.4289 16.9652 23.4289 16.5363 23C16.1074 22.5711 16.1074 21.8809 16.1074 20.5003V2.92861Z" fill="#6D6BD1"/>
</g>
</g>
<defs>
<clipPath id="clip0_1200_109">
<rect width="91.74" height="23.43" fill="white"/>
</clipPath>
</defs>
</svg>
